<svg xmlns="http://www.w3.org/2000/svg" xmlns:xlink="http://www.w3.org/1999/xlink" xmlns:inkscape="http://www.inkscape.org/namespaces/inkscape" version="1.1" width="1011.72146" height="500.00196" viewBox="0 0 1011.72146 500.00196">
<path transform="matrix(1,0,0,-1,573.4944,495.51954)" d="M70.952648 163.23828C75.17786 163.23828 78.372447 161.744 80.53658 158.75545 82.803768 155.86994 83.93737 152.46915 83.93737 148.5531V134.33167C92.07863 141.8546 101.04437 148.5531 110.834499 154.42717 120.62462 160.30124 130.31163 163.23828 139.89565 163.23828 149.89188 163.23828 158.18772 160.765 164.78316 155.8184 171.37862 150.87183 176.32527 144.43096 179.62299 136.4958 183.02378 128.56066 184.72412 120.00719 184.72412 110.83539V46.52973C184.72412 43.644227 184.8272 40.810266 185.0333 38.02781 185.34246 35.245355 186.47606 32.617479 188.43408 30.14418 190.80432 27.155625 192.8654 24.836884 194.61733 23.188019 196.47229 21.53917 197.39977 18.499085 197.39977 14.067764 197.39977 9.533386 196.00852 6.029572 193.22606 3.556274 190.4436 1.186035 186.83676 .0009 182.40544 .0009H117.79065C113.46239 .0009 110.11311 1.289093 107.742877 3.865448 105.47569 6.441788 104.34209 9.842545 104.34209 14.067764 104.34209 17.98381 105.21803 21.023896 106.96995 23.188019 108.82492 25.455216 110.62834 27.773941 112.38026 30.14418 114.23523 32.617479 115.162708 36.06977 115.162708 40.501085V94.14062C115.162708 98.98415 114.1837 103.72464 112.22568 108.36206 110.370708 112.9995 106.45467 115.31822 100.47755 115.31822 96.87066 115.31822 93.779048 114.59683 91.2027 113.154079 88.62635 111.81438 86.20455 110.062488 83.93737 107.89835V44.67476C83.93737 41.892305 84.04043 39.058343 84.24654 36.17283 84.452648 33.39038 85.483188 30.814026 87.33816 28.443787 89.50229 25.867447 91.30579 23.754837 92.74855 22.105973 94.1913 20.560166 94.91265 17.880753 94.91265 14.067764 94.91265 9.842545 93.72752 6.441788 91.357288 3.865448 89.090099 1.289093 85.79236 .0009 81.46409 .0009H16.849308C12.417989 .0009 8.811104 1.186035 6.028648 3.556274 3.246193 6.029572 1.854979 9.533386 1.854979 14.067764 1.854979 17.468537 2.473267 20.09642 3.709914 21.951386 5.049615 23.909409 6.543892 25.71283 8.192755 27.361695 9.841617 29.01056 11.284406 31.020142 12.521052 33.39038 13.860753 35.760629 14.530573 39.00679 14.530573 43.128946V100.47844C14.530573 105.11586 13.809222 108.61973 12.366467 110.989978 10.923713 113.360218 9.22331 115.215167 7.265286 116.55486 5.307262 117.99762 3.606861 119.54343 2.164106 121.19229 .721351 122.84115 0 125.31445 0 128.61219 0 132.63129 1.339683 135.77443 4.019084 138.04161 6.698486 140.41185 9.687039 142.26682 12.984765 143.6065L46.37421 157.05506C50.290258 158.7039 54.257905 160.14669 58.277009 161.38333 62.399164 162.61997 66.62438 163.23828 70.952648 163.23828Z" fill="#006f3d"/>
<path transform="matrix(1,0,0,-1,391.8623,500)" d="M0 40.035516C0 49.51647 2.215671 57.40011 6.646989 63.686395 11.078307 70.07574 16.849333 75.176898 23.960053 78.98989 31.173827 82.90594 38.954397 85.68841 47.30176 87.33727 55.64913 88.98614 63.687314 89.81055 71.41636 89.81055 73.68354 89.81055 76.00227 89.75902 78.37252 89.65597 80.74276 89.65597 83.06145 89.44988 85.328639 89.03767V129.22869C85.328639 131.80503 84.76183 134.79358 83.62824 138.19437 82.5977 141.59514 80.43356 143.29555 77.13583 143.29555 73.94116 143.29555 71.93162 141.95584 71.107189 139.27645 70.38581 136.70009 70.02513 134.22678 70.02513 131.85654 70.02513 130.826 70.02513 129.74393 70.02513 128.61035 70.12819 127.5798 70.17972 126.497737 70.17972 125.364139 70.17972 114.74959 66.5213 107.278209 59.204477 102.94994 51.887647 98.72473 43.540277 96.61212 34.16237 96.61212 26.330273 96.61212 19.52871 98.36401 13.75769 101.86784 7.986671 105.37167 5.101181 111.55491 5.101181 120.41754 5.101181 123.92138 5.771 127.32218 7.110702 130.6199 8.553456 133.91764 10.35692 136.85468 12.521052 139.43103 18.80734 147.057 26.690974 152.87955 36.171937 156.89865 45.755949 160.91776 55.803678 163.64868 66.31518 165.09145 76.92973 166.63726 86.87444 167.41016 96.14929 167.41016 106.66079 167.41016 116.29636 165.91587 125.05594 162.92729 133.81552 159.93874 140.82317 154.94063 146.07892 147.93297 151.33467 141.02835 153.96254 131.70198 153.96254 119.953838V48.69207C153.96254 46.940149 154.37476 45.39434 155.19919 44.05464 156.02362 42.714944 157.41487 42.045083 159.3729 42.045083 160.9187 42.045083 162.20685 42.50882 163.2374 43.436304 164.37099 44.466844 165.71071 44.98211 167.25652 44.98211 170.24509 44.98211 172.46071 43.95157 173.90348 41.890497 175.44928 39.829416 176.2222 37.40767 176.2222 34.625215 176.2222 27.411438 174.00653 21.176667 169.57521 15.920929 165.24695 10.768234 159.8366 6.852158 153.34421 4.17276 146.8518 1.390305 140.3079-.000916 133.71245-.000916 125.983409-.000916 118.151309 1.699493 110.216159 5.100266 102.384059 8.501038 96.97375 13.808289 93.98518 21.022065 88.72944 13.705231 81.51566 8.346451 72.34387 4.945679 63.275125 1.647949 54.360956-.000916 45.601369-.000916 37.563165-.000916 30.040207 1.493362 23.032542 4.481918 16.12793 7.573547 10.563029 12.107895 6.337819 18.085022 2.112608 24.06215 0 31.378983 0 40.035516ZM69.715969 53.63862C69.715969 49.516466 70.69497 45.600435 72.65299 41.890497 74.61102 38.2836 77.96029 36.48015 82.700778 36.48015 83.62826 36.48015 84.5042 36.583208 85.328639 36.789308V68.787578C83.57671 69.50895 81.77329 69.86963 79.91833 69.86963 76.00227 69.86963 73.32287 67.91161 71.88011 63.995569 70.437358 60.18257 69.715969 56.73024 69.715969 53.63862Z" fill="#006f3d"/>
<path transform="matrix(1,0,0,-1,223.98828,500.00196)" d="M155.66294 106.661258C155.66294 97.489459 152.93199 90.53334 147.47014 85.79286 142.11135 81.05238 135.00063 78.68212 126.13799 78.68212H63.8419C66.21214 69.81948 70.437358 62.3481 76.51754 56.26792 82.59772 50.290796 91.3573 47.3022 102.79628 47.3022 107.33065 47.3022 111.813488 48.22972 116.244808 50.084688 120.779178 52.04271 125.00439 54.309869 128.92044 56.886217 132.93955 59.46257 136.44336 61.678239 139.43193 63.53321 142.42049 65.491237 144.6877 66.47024 146.2335 66.47024 149.22206 66.47024 151.3862 65.38817 152.7259 63.224039 154.06562 61.162958 154.73548 58.79274 154.73548 56.113336 154.73548 46.735429 152.5198 38.49112 148.08849 31.380402 143.76023 24.372742 137.9892 18.550187 130.77542 13.91275 123.664699 9.27533 115.832599 5.823044 107.27912 3.555847 98.8287 1.185608 90.48133 .000488 82.237018 .000488 66.05755 .000488 51.784608 3.349716 39.418138 10.048218 27.051667 16.74672 17.364569 26.124634 10.356903 38.18193 3.452291 50.342294 0 64.61528 0 81.000858 0 98.52002 3.349272 113.77197 10.047776 126.75676 16.849335 139.74155 26.58792 149.78932 39.26355 156.90004 51.939184 164.11382 67.1396 167.7207 84.864879 167.7207 97.128299 167.7207 108.61881 165.402 119.33642 160.76457 130.15708 156.12714 138.91666 149.27407 145.61516 140.20532 152.31366 131.13658 155.66294 119.95521 155.66294 106.661258ZM61.059457 102.48759C61.059457 101.35399 61.059457 100.22039 61.059457 99.0868H77.13583C81.05189 99.0868 83.73129 99.962749 85.17405 101.71466 86.616809 103.569629 87.338199 106.3521 87.338199 110.06204 87.338199 112.53534 87.02901 115.78154 86.41068 119.800647 85.792369 123.81975 84.55574 127.426639 82.700778 130.6213 80.94885 133.81598 78.372509 135.41332 74.97173 135.41332 71.88011 135.41332 69.40683 134.12512 67.55186 131.54877 65.696887 129.07547 64.30563 125.93233 63.378145 122.11934 62.45066 118.40939 61.83233 114.75098 61.523168 111.14409 61.214006 107.53721 61.059457 104.65172 61.059457 102.48759Z" fill="#006f3d"/>
<path transform="matrix(1,0,0,-1,0,495.51759)" d="M215.6403 51.32039C215.6403 40.8089 213.3216 32.203905 208.68416 25.505402 204.04674 18.8069 197.91501 13.602676 190.28903 9.892731 182.7661 6.1828 174.57332 3.606445 165.71068 2.163696 156.84804 .720947 148.13997-.000458 139.5865-.000458H18.395115C12.830203-.000458 8.347363 1.339233 4.946584 4.018631 1.648859 6.698029 0 10.974777 0 16.848847 0 22.001542 1.030539 25.866089 3.091617 28.442444 5.255749 31.121842 7.729043 33.28598 10.511498 34.934846 13.293954 36.58371 15.715717 38.49019 17.776795 40.654314 19.940928 42.92151 21.022997 46.21924 21.022997 50.547517V163.39151C21.022997 167.92589 19.940928 171.27513 17.776795 173.43927 15.715717 175.6034 13.293954 177.45838 10.511498 179.00418 7.729043 180.65305 5.255749 182.76566 3.091617 185.342 1.030539 187.91835 0 191.8344 0 197.09015 0 202.96422 1.648859 207.24095 4.946584 209.92035 8.347363 212.59975 12.830203 213.93946 18.395115 213.93946H112.844028C122.943309 213.93946 133.30023 212.85738 143.91478 210.69326 154.63239 208.52912 164.52556 204.97377 173.5943 200.02718 182.66306 195.0806 189.97986 188.48514 195.54477 180.24082 201.21274 171.9965 204.04674 161.79419 204.04674 149.63382 204.04674 136.33988 199.97609 125.87989 191.83484 118.25391 183.79663 110.730968 174.21262 105.32062 163.0828 102.022899 172.0485 100.06487 180.49892 96.97325 188.43407 92.74805 196.47228 88.625888 203.01618 83.16405 208.06583 76.36249 213.11547 69.56094 215.6403 61.213563 215.6403 51.32039ZM98.004268 182.8687H97.076778V109.13364H102.641689C114.28678 109.13364 122.27345 112.482868 126.601718 119.18137 131.03304 125.879878 133.2487 134.5364 133.2487 145.15097 133.2487 156.693 130.36319 165.8648 124.59217 172.66637 118.82115 179.46793 109.95851 182.8687 98.004268 182.8687ZM141.13231 54.56659C141.13231 62.810899 138.71056 69.61247 133.86702 74.97127 129.12654 80.43312 122.47955 83.16406 113.92608 83.16406H97.076778V56.730745C97.076778 48.89865 98.98328 42.61235 102.79627 37.871873 106.60927 33.23445 112.586399 30.91571 120.72765 30.91571 128.2506 30.91571 133.50632 33.13138 136.49489 37.5627 139.5865 41.99402 141.13231 47.661989 141.13231 54.56659Z" fill="#006f3d"/>
<path transform="matrix(1,0,0,-1,849.37918,247.01367)" d="M155.66294 106.661258C155.66294 97.48946 152.93204 90.533329 147.47019 85.79285 142.11138 81.05237 135.00058 78.68213 126.13795 78.68213H63.841859C66.2121 69.81949 70.43732 62.348085 76.517498 56.2679 82.59768 50.29077 91.3573 47.302225 102.79628 47.302225 107.33065 47.302225 111.81353 48.2297 116.24484 50.084665 120.77921 52.042695 125.00443 54.30989 128.92049 56.88624 132.93959 59.462587 136.44336 61.678239 139.43193 63.53321 142.42049 65.491237 144.6877 66.47024 146.2335 66.47024 149.22206 66.47024 151.3862 65.38817 152.7259 63.224039 154.06562 61.162958 154.73543 58.79274 154.73543 56.113336 154.73543 46.735429 152.51976 38.491106 148.08844 31.380387 143.76018 24.372712 137.9892 18.550187 130.77542 13.91275 123.664699 9.27533 115.83264 5.823013 107.27917 3.555832 98.82874 1.185593 90.48137 .000488 82.23706 .000488 66.057598 .000488 51.78456 3.349731 39.418096 10.048233 27.051623 16.746735 17.364613 26.12465 10.356947 38.18196 3.452335 50.342317 0 64.615268 0 81.00084 0 98.520008 3.349272 113.77199 10.047776 126.756778 16.849335 139.74158 26.587878 149.78932 39.263509 156.90004 51.93914 164.11382 67.13965 167.7207 84.86492 167.7207 97.128337 167.7207 108.61885 165.402 119.336467 160.76456 130.15712 156.12714 138.91666 149.27405 145.61516 140.2053 152.31366 131.13657 155.66294 119.955219 155.66294 106.661258ZM61.05941 102.48758C61.05941 101.35399 61.05941 100.2204 61.05941 99.0868H77.13583C81.05189 99.0868 83.73134 99.96276 85.17409 101.714679 86.616847 103.56965 87.338199 106.352108 87.338199 110.06204 87.338199 112.53534 87.02901 115.781528 86.41068 119.80063 85.792369 123.81973 84.5557 127.42663 82.70073 130.6213 80.948818 133.81598 78.372509 135.4133 74.97173 135.4133 71.88011 135.4133 69.406787 134.12512 67.55181 131.54878 65.696849 129.07549 64.30567 125.93234 63.37819 122.119358 62.450704 118.40941 61.83233 114.75099 61.523168 111.14411 61.214006 107.537227 61.05941 104.65171 61.05941 102.48758Z" fill="#006f3d"/>
<path transform="matrix(1,0,0,-1,735.76199,242.5293)" d="M72.80762 232.49024C77.03283 232.49024 80.27904 231.04749 82.54623 228.16197 84.916469 225.27646 86.10159 221.82416 86.10159 217.80506V46.529466C86.10159 43.540895 86.25619 40.60388 86.56535 37.71837 86.87451 34.935914 88.16262 32.41107 90.42981 30.14389 93.212268 27.361435 95.58253 25.094254 97.54055 23.342347 99.60163 21.693482 100.632167 18.601868 100.632167 14.06749 100.632167 9.430069 99.18938 5.926224 96.30387 3.555984 93.41836 1.185745 89.75999 .000626 85.32867 .000626H17.313105C12.881786 .000626 9.223328 1.185745 6.337818 3.555984 3.452309 5.926224 2.009607 9.430069 2.009607 14.06749 2.009607 17.983536 2.730958 20.81752 4.173713 22.569428 5.616467 24.424408 7.316825 26.021744 9.27485 27.36145 11.232874 28.701142 12.933318 30.556122 14.376073 32.92636 15.818828 35.39966 16.540179 39.264177 16.540179 44.519929V169.88498C16.540179 174.83158 15.715765 178.43846 14.066903 180.70566 12.41804 182.97284 10.460026 184.67324 8.19284 185.80683 6.028708 187.04347 4.122225 188.4347 2.473362 189.9805 .8245 191.62937 0 194.25724 0 197.86412 0 201.98628 1.339726 205.18096 4.019127 207.44814 6.698529 209.71532 9.738613 211.51877 13.139392 212.85846L47.61093 226.307C51.733087 227.95586 55.85524 229.39862 59.977396 230.63527 64.099559 231.87192 68.3763 232.49024 72.80762 232.49024Z" fill="#006f3d"/>
<path transform="matrix(1,0,0,-1,503.27125,242.5293)" d="M91.20269 .000626H18.085944C13.654626 .000626 9.893147 1.134232 6.80153 3.401413 3.812968 5.771652 2.318691 9.327011 2.318691 14.06749 2.318691 17.57132 3.091616 20.353775 4.637425 22.414856 6.286287 24.57898 8.450427 26.588532 11.129828 28.443497 14.015338 30.504578 16.076415 32.101915 17.31306 33.235506 18.549708 34.472154 19.32259 35.966447 19.631752 37.71837 19.940915 39.47029 20.095509 42.098146 20.095509 45.601976V169.88498C20.095509 173.69799 19.78632 176.42891 19.167998 178.07778 18.652728 179.72664 17.570658 180.96329 15.921795 181.78772 14.375986 182.7152 12.005765 183.95185 8.811094 185.49765 6.234747 186.7343 4.122139 188.38317 2.473276 190.44425 .824414 192.50533 0 194.9786 0 197.86412 0 201.98628 1.391214 205.18096 4.173669 207.44814 6.956125 209.81838 10.04774 211.62183 13.448519 212.85846L49.775037 226.307C54.000246 227.85282 58.27695 229.24404 62.605215 230.48069 66.93348 231.82039 71.313289 232.49024 75.744609 232.49024 80.07287 232.49024 83.47363 231.099 85.94692 228.31656 88.42022 225.53409 89.65688 222.03026 89.65688 217.80506V92.13081L124.59217 119.955379C125.4166 120.5737 126.29255 121.295078 127.22003 122.11951 128.25058 122.94394 128.76584 123.87142 128.76584 124.90196 128.76584 126.756938 127.52918 128.30274 125.055889 129.5394 122.582599 130.77603 120.10931 132.4249 117.63602 134.48596 115.16272 136.6501 113.9261 139.94783 113.9261 144.37915 113.9261 149.22269 115.42038 152.7265 118.40894 154.89066 121.50056 157.15784 125.26199 158.29143 129.69332 158.29143H193.5352C197.96652 158.29143 201.67647 157.15784 204.66504 154.89066 207.75666 152.7265 209.30246 149.22269 209.30246 144.37915 209.30246 138.50508 207.39598 134.43445 203.58298 132.16727 199.87305 130.00313 195.5963 128.30274 190.75276 127.06609 184.98174 125.62334 179.77751 124.02601 175.14009 122.27409 170.50267 120.52217 165.8137 117.68818 161.07323 113.77213L152.10756 106.506839 203.11923 41.582887C205.38642 38.80043 208.37497 35.96643 212.0849 33.080919 215.8979 30.298462 219.35024 27.309922 222.44185 24.11525 225.53347 20.920578 227.07924 17.31369 227.07924 13.294586 227.07924 8.657166 225.53347 5.256378 222.44185 3.092239 219.35024 1.031174 215.69178 .000626 211.46657 .000626H137.42235C133.19715 .000626 129.79639 1.288803 127.22003 3.865143 124.643688 6.441498 123.35549 9.842285 123.35549 14.06749 123.35549 18.086594 124.48909 21.07515 126.75628 23.033173 129.12653 24.991196 131.44525 26.588532 133.71244 27.82518 135.97963 29.164887 137.11322 30.762223 137.11322 32.617189 137.11322 34.36911 136.54642 35.914918 135.41283 37.25461 134.3823 38.594316 133.35176 39.830965 132.32122 40.964555L107.58828 70.4895 89.65688 55.958894V46.529466C89.65688 43.231737 89.81148 39.98555 90.120639 36.79088 90.429798 33.596208 92.02714 30.813736 94.91264 28.443497 97.90121 26.176316 100.3745 24.321366 102.33252 22.878602 104.29054 21.435853 105.26955 18.49881 105.26955 14.06749 105.26955 4.68959 100.5806 .000626 91.20269 .000626Z" fill="#006f3d"/>
<path transform="matrix(1,0,0,-1,336.63404,247.01367)" d="M152.72589 117.01819C152.72589 107.331119 149.22208 99.96275 142.2144 94.91311 135.20674 89.86347 127.271579 87.33865 118.40894 87.33865 109.340198 87.33865 102.0749 89.81195 96.61304 94.75854 91.151187 99.705127 88.42024 106.81584 88.42024 116.0907 88.42024 120.3159 87.85344 124.592639 86.71985 128.9209 85.68931 133.24918 82.34008 135.4133 76.67212 135.4133 72.34385 135.4133 69.04611 133.3007 66.77892 129.07549 64.51174 124.85028 62.965936 120.109798 62.141504 114.85405 61.420125 109.5983 61.05945 105.37309 61.05945 102.17842 61.05945 93.31578 62.502195 84.865367 65.3877 76.82716 68.27322 68.788959 72.85911 62.245035 79.14539 57.19539 85.43168 52.248804 93.57297 49.77552 103.5692 49.77552 109.44327 49.77552 115.265789 51.166734 121.036808 53.94919 126.80782 56.834695 131.90898 59.66868 136.3403 62.451135 140.77162 65.23359 143.86328 66.624828 145.61519 66.624828 148.80986 66.624828 150.92243 65.336658 151.95298 62.7603 152.9835 60.28701 153.49878 57.81373 153.49878 55.34043 153.49878 46.065584 151.28314 37.975847 146.85184 31.071228 142.52356 24.166626 136.75255 18.3956 129.53878 13.758179 122.42805 9.223801 114.64748 5.823013 106.19706 3.555832 97.84969 1.185593 89.65691 .000488 81.61871 .000488 66.16063 .000488 52.248315 3.298203 39.881845 9.893646 27.618432 16.592148 17.879868 25.918534 10.666095 37.872789 3.555375 49.82704 0 63.63626 0 79.30045 0 96.30435 3.452313 111.45327 10.356924 124.74722 17.261536 138.04119 27.051674 148.50115 39.727304 156.12714 52.50599 163.85617 67.55186 167.7207 84.864917 167.7207 92.593959 167.7207 100.42602 166.74169 108.36117 164.78366 116.29632 162.9287 123.613147 159.94013 130.31165 155.81798 137.01016 151.79888 142.4205 146.54312 146.54267 140.05072 150.66481 133.66138 152.72589 125.98387 152.72589 117.01819Z" fill="#006f3d"/>
<path transform="matrix(1,0,0,-1,225.95386,242.53125)" d="M71.261798 163.23828C75.48701 163.23828 78.73319 161.79553 81.00038 158.91002 83.37062 156.0245 84.55575 152.5722 84.55575 148.5531V46.52973C84.55575 43.644227 84.65879 40.707208 84.8649 37.718645 85.174068 34.83313 86.35919 32.30829 88.42027 30.144165 91.09967 27.258652 93.31532 24.99147 95.06724 23.342606 96.92221 21.69374 97.84971 18.602128 97.84971 14.067764 97.84971 9.533386 96.40694 6.029541 93.52143 3.556244 90.738979 1.186005 87.13209 .0009 82.700778 .0009H17.003914C12.572596 .0009 8.91418 1.186005 6.02867 3.556244 3.246214 5.926483 1.854979 9.430328 1.854979 14.067764 1.854979 18.499085 2.730945 21.590699 4.482862 23.342606 6.234778 25.197587 8.501959 27.464768 11.284414 30.144165 13.345492 32.205247 14.479094 34.781587 14.685202 37.873208 14.994363 40.96482 15.148935 43.850336 15.148935 46.52973V100.478458C15.148935 102.539539 14.994363 104.65213 14.685202 106.81626 14.37604 109.08345 13.500073 110.98995 12.057319 112.53577 11.645103 113.05103 11.129833 113.46324 10.51151 113.7724 9.996241 114.08156 9.532502 114.44226 9.120287 114.85448 6.853101 117.22472 4.740492 119.13121 2.782468 120.57396 .927498 122.11977 0 124.799167 0 128.61217 0 132.73432 1.288173 135.929 3.864521 138.19618 6.440869 140.46337 9.480975 142.26682 12.984808 143.6065L46.374277 157.05504C50.29032 158.60085 54.360948 159.99208 58.586156 161.22873 62.811368 162.56844 67.03658 163.23828 71.261798 163.23828Z" fill="#006f3d"/>
<path transform="matrix(1,0,0,-1,7.06665,242.52735)" d="M208.52959 132.93909C208.52959 120.26345 206.10784 109.54585 201.26432 100.78627 196.52384 92.02669 190.03144 84.91597 181.78713 79.45412 173.64586 73.99225 164.42252 70.02467 154.11713 67.55138 143.81174 65.07808 133.09412 63.841447 121.9643 63.841447 113.41083 63.841447 105.01195 64.71739 96.76763 66.469318V50.547487C96.76763 45.600908 98.00427 42.045549 100.47757 39.88141 102.95086 37.717287 105.83637 35.913835 109.1341 34.471086 112.43182 33.13138 115.31734 31.224884 117.790637 28.751587 120.26392 26.27829 121.500568 22.310715 121.500568 16.848847 121.500568 10.974777 119.80016 6.698059 116.39938 4.018646 113.10166 1.339249 108.67034-.000458 103.10543-.000458H18.395125C12.933267-.000458 8.501947 1.339249 5.101169 4.018646 1.70039 6.801102 0 11.077835 0 16.848847 0 22.104599 1.030538 26.02066 3.091617 28.597 5.152695 31.276398 7.574461 33.440538 10.356917 35.0894 13.139373 36.738267 15.561141 38.644777 17.62222 40.8089 19.683299 42.973039 20.713837 46.219224 20.713837 50.547487V163.39151C20.713837 167.82283 19.683299 171.12056 17.62222 173.28469 15.561141 175.55188 13.139373 177.5099 10.356917 179.15876 7.574461 180.80762 5.152695 182.92023 3.091617 185.49658 1.030538 188.07292 0 191.93744 0 197.09015 0 202.86116 1.70039 207.08637 5.101169 209.76578 8.501947 212.54824 12.933267 213.93946 18.395125 213.93946H98.777179C111.65891 213.93946 124.54065 212.54824 137.42238 209.76578 150.40718 206.98332 162.25839 202.44895 172.976 196.16266 183.6936 189.97942 192.29862 181.68358 198.79102 171.27513 205.2834 160.8667 208.52959 148.08802 208.52959 132.93909ZM135.41284 135.2578C135.41284 146.9029 132.01206 157.10523 125.2105 165.8648 118.40894 174.62439 108.92799 179.21028 96.76763 179.6225V94.603038C97.90122 94.49998 99.034809 94.44845 100.168399 94.44845 112.12265 94.44845 120.98529 98.51908 126.75631 106.66034 132.52733 114.8016 135.41284 124.33408 135.41284 135.2578Z" fill="#006f3d"/>
<path transform="matrix(1,0,0,-1,785.72146,496)" d="M212.71082 59.785417C221.19158 75.64307 226.00005 93.75998 226.00005 112.99998 226.00005 131.41965 221.59287 148.80998 213.77545 164.174 209.39878 159.14858 202.95317 155.97234 195.76573 155.97234 182.5809 155.97234 171.89249 166.66075 171.89249 179.84558 171.89249 188.8393 176.86576 196.67142 184.21224 200.74195 164.77751 216.53469 139.99414 226 113.00002 226 86.57082 226 62.260808 216.9267 43.01497 201.7251 51.43776 198.03743 57.32247 189.6287 57.32247 179.8455 57.32247 166.66068 46.634057 155.97226 33.44923 155.97226 25.133109 155.97226 17.810124 160.2244 13.535831 166.67308 4.901743 150.70652 0 132.42568 0 112.99998 0 92.841327 5.278618 73.91554 14.529032 57.529497 18.89419 63.193223 25.745619 66.84212 33.449289 66.84212 46.634115 66.84212 57.32253 56.1537 57.32253 42.968873 57.32253 34.183076 52.576547 26.505784 45.508455 22.360825 64.34126 8.314758 87.69963-.000046 113.00002-.000046 138.96686-.000046 162.88802 8.758575 181.97037 23.482682 175.87218 27.80777 171.89249 34.92357 171.89249 42.968873 171.89249 56.1537 182.5809 66.84212 195.76573 66.84212 202.39084 66.84212 208.38564 64.14345 212.71082 59.785417ZM136.89252 113.002048C136.89252 99.817218 126.20411 89.1288 113.01928 89.1288 99.83445 89.1288 89.146038 99.817218 89.146038 113.002048 89.146038 126.186878 99.83445 136.87529 113.01928 136.87529 126.20411 136.87529 136.89252 126.186878 136.89252 113.002048Z" fill="#86cc05" fill-rule="evenodd"/>
<path transform="matrix(1,0,0,-1,227.10718,69.009769)" d="M47.51087-.000694C40.296884-.000694 33.02654 1.08654 25.699833 3.260994 18.373127 5.435455 12.229964 9.040482 7.270348 14.076069 2.423449 19.226105 0 26.15004 0 34.847875 0 43.54571 2.479808 50.355199 7.439425 55.27634 12.399042 60.31193 18.542202 63.85973 25.868908 65.91975 33.195615 67.97976 40.409605 69.009769 47.51087 69.009769 54.61214 69.009769 61.82613 67.97976 69.15283 65.91975 76.59226 63.85973 82.79179 60.31193 87.7514 55.27634 92.82374 50.355199 95.3599 43.54571 95.3599 34.847875 95.3599 26.035595 92.880107 19.054429 87.92049 13.904396 82.96088 8.868805 76.76134 5.263779 69.321918 3.089325 61.99521 1.029305 54.72486-.000694 47.51087-.000694Z" fill="#006f3d"/>
</svg>
